<?xml version="1.0" encoding="utf-8"?>
<!-- Generator: Adobe Illustrator 16.0.0, SVG Export Plug-In . SVG Version: 6.00 Build 0)  -->
<!DOCTYPE svg PUBLIC "-//W3C//DTD SVG 1.0//EN" "http://www.w3.org/TR/2001/REC-SVG-20010904/DTD/svg10.dtd">
<svg version="1.0" xmlns="http://www.w3.org/2000/svg" xmlns:xlink="http://www.w3.org/1999/xlink" x="0px" y="0px" width="148px"
	 height="144px" viewBox="0 0 148 144" enable-background="new 0 0 148 144" xml:space="preserve">
<g id="Layer_1">
</g>
<g id="Layer_2">
	<g>
		<path fill="#6D6E71" d="M73.366,19.241c28.92,0,52.449,23.527,52.449,52.445c0,28.92-23.528,52.449-52.449,52.449
			c-28.918,0-52.444-23.528-52.444-52.449C20.921,42.768,44.448,19.241,73.366,19.241 M73.366,5.241
			c-36.7,0-66.444,29.745-66.444,66.445c0,36.704,29.745,66.449,66.444,66.449c36.704,0,66.449-29.745,66.449-66.449
			C139.814,34.986,110.069,5.241,73.366,5.241L73.366,5.241z"/>
	</g>
	<g>
		<path fill="#6D6E71" stroke="#6D6E71" stroke-width="4" stroke-miterlimit="10" d="M96.552,44.781L78.424,68.633v0.382
			l28.814-3.816v12.976L78.424,74.74v0.382l18.319,22.9l-12.023,6.869L73.272,78.175H72.89l-12.402,26.907L49.61,98.212
			l18.128-23.28V74.55l-28.242,3.625V65.199l28.051,3.626v-0.382L49.61,45.164l11.64-6.679l11.831,26.525h0.381l11.64-26.715
			L96.552,44.781z"/>
	</g>
</g>
</svg>
